# xmcd
#
# Track frame offsets: 
#        150
#        12079
#        21880
#        39399
#        52395
#        69340
#        81977
#        93305
#        110154
#        127410
#        140208
#        156862
#
# Disc length: 2563 seconds
#
# Revision: 0
# Processed by: cddbd v1.5.2PL0 Copyright (c) Steve Scherf et al.
# Submitted via: ExactAudioCopy v0.90b4
#
DISCID=af0a010c
DTITLE=The Hugh Dillion Redemption Choir - The High Cost of Low Living
DYEAR=2005
DGENRE=Blues
TTITLE0=Surface of the Sun
TTITLE1=Number On the Wall
TTITLE2=Radio Plays
TTITLE3=Microscope
TTITLE4=What it takes
TTITLE5=Well On Your Way
TTITLE6=My Mistakes
TTITLE7=Gods Have Spoken
TTITLE8=Sentimental Me
TTITLE9=Tenn Feet Tall
TTITLE10=Puzzle I Am
TTITLE11=Silence and Mannequins
EXTD=
EXTT0=
EXTT1=
EXTT2=
EXTT3=
EXTT4=
EXTT5=
EXTT6=
EXTT7=
EXTT8=
EXTT9=
EXTT10=
EXTT11=
PLAYORDER=
